<svg height="480pt" viewBox="0 -36 480 480" width="480pt" xmlns="http://www.w3.org/2000/svg"><path d="m464 32h-32v-24c0-4.417969-3.582031-8-8-8h-104c-2.519531 0-4.890625 1.1875-6.398438 3.199219l-21.601562 28.800781h-276c-8.835938 0-16 7.164062-16 16v112c.015625 5.691406 3.066406 10.941406 8 13.777344v226.222656c0 4.417969 3.582031 8 8 8h32c4.417969 0 8-3.582031 8-8v-224h48v160h-24c-4.417969 0-8 3.582031-8 8 0 13.847656 0 56 40 56h232c17.671875 0 32-14.328125 32-32v-192h48v224c0 4.417969 3.582031 8 8 8h32c4.417969 0 8-3.582031 8-8v-226.222656c4.933594-2.835938 7.984375-8.085938 8-13.777344v-112c0-8.835938-7.164062-16-16-16zm0 16v112h-32v-112zm-184 128c0 18.808594-13.105469 35.078125-31.484375 39.082031-18.378906 4.003907-37.066406-5.335937-44.890625-22.445312-7.824219-17.105469-2.671875-37.351563 12.375-48.636719h48c10.082031 7.546875 16.015625 19.40625 16 32zm-13.488281-48h-162.511719c-4.417969 0-8-3.582031-8-8s3.582031-8 8-8h272c4.417969 0 8 3.582031 8 8s-3.582031 8-8 8zm-146.511719 81.390625c7.480469 2.699219 13.140625 8.917969 15.128906 16.617187.914063 3.527344 4.09375 5.988282 7.734375 5.992188h17.136719c4.417969 0 8 3.582031 8 8s-3.582031 8-8 8h-40zm-56-161.390625h224v48h-224zm352 48h-112v-48h112zm-22.238281 40c6.015625-6.445312 7.875-15.738281 4.796875-24h17.441406v48h-17.457031c3.0625-8.265625 1.203125-17.546875-4.800781-24zm-69.761719-120h92v16h-104zm-308 32h32v112h-32zm24 344h-16v-216h16zm24-280h17.472656c-3.082031 8.261719-1.222656 17.558594 4.800782 24-4.039063 4.347656-6.277344 10.066406-6.273438 16 .027344 2.730469.523438 5.4375 1.472656 8h-17.472656zm32 40c-.003906-2.160156.882812-4.222656 2.457031-5.703125 1.457031-1.488281 3.460938-2.316406 5.542969-2.296875v16c-4.417969 0-8-3.582031-8-8zm24 112h40c13.253906 0 24-10.746094 24-24s-10.746094-24-24-24h-11.457031c-5.199219-11.875-15.84375-20.484375-28.542969-23.089844v-48.910156h74.0625c-16.234375 23.285156-12.480469 55.03125 8.738281 73.886719 21.214844 18.855469 53.183594 18.855469 74.398438 0 21.21875-18.855469 24.972656-50.601563 8.738281-73.886719h74.0625v114.703125l-41.976562-48c-1.609376-1.75-3.886719-2.734375-6.261719-2.703125-2.394531.074219-4.628907 1.214844-6.089844 3.113281l-56.273437 72.886719-27.199219-33.0625c-1.5-1.953125-3.863281-3.042969-6.320313-2.914062-2.4375.050781-4.71875 1.207031-6.199218 3.144531l-64.878907 84.832031h-24.800781zm151.527344 72h-106.625l51.328125-67.136719zm-95.527344 48h-64c-13.167969 0-22.3125-5.679688-23.792969-32h215.792969v12c-.007812 7.125 2.109375 14.085938 6.078125 20zm168 0h-4c-11.046875 0-20-8.953125-20-20v-20c0-4.417969-3.582031-8-8-8h-19.753906l-32.414063-39.359375 52.550781-68.054687 47.617188 54.421874v84.992188c0 8.835938-7.164062 16-16 16zm32-240c4.417969 0 8 3.582031 8 8 .003906 2.160156-.882812 4.222656-2.457031 5.703125-1.457031 1.488281-3.460938 2.316406-5.542969 2.296875zm80 248h-16v-216h16zm0 0"/><path d="m96 64h16v16h-16zm0 0"/><path d="m128 64h16v16h-16zm0 0"/><path d="m160 64h16v16h-16zm0 0"/><path d="m392 208h16v16h-16zm0 0"/><path d="m392 240h16v48h-16zm0 0"/><path d="m320 64h80v16h-80zm0 0"/></svg>